<mxfile host="Electron" modified="2023-11-07T00:01:27.575Z" agent="Mozilla/5.0 (Macintosh; Intel Mac OS X 10_15_7) AppleWebKit/537.36 (KHTML, like Gecko) draw.io/22.0.3 Chrome/114.0.5735.289 Electron/25.8.4 Safari/537.36" etag="Os23rbxS7U2PxTKSzXvZ" version="22.0.3" type="device">
  <diagram name="Page-1" id="38b20595-45e3-9b7f-d5ca-b57f44c5b66d">
    <mxGraphModel dx="1060" dy="808" grid="0" gridSize="10" guides="1" tooltips="1" connect="1" arrows="1" fold="1" page="1" pageScale="1" pageWidth="1100" pageHeight="850" background="none" math="0" shadow="0">
      <root>
        <mxCell id="0" />
        <mxCell id="1" parent="0" />
        <mxCell id="ag_mGLsWCz3XFreDvWMs-2" value="" style="verticalLabelPosition=bottom;html=1;verticalAlign=top;align=center;shape=mxgraph.floorplan.wallCorner;fillColor=strokeColor;" vertex="1" parent="1">
          <mxGeometry x="190" y="152" width="100" height="650" as="geometry" />
        </mxCell>
        <mxCell id="ag_mGLsWCz3XFreDvWMs-3" value="" style="verticalLabelPosition=bottom;html=1;verticalAlign=top;align=center;shape=mxgraph.floorplan.wallCorner;fillColor=strokeColor;direction=north" vertex="1" parent="1">
          <mxGeometry x="190" y="603" width="330" height="200" as="geometry" />
        </mxCell>
        <mxCell id="ag_mGLsWCz3XFreDvWMs-4" value="" style="verticalLabelPosition=bottom;html=1;verticalAlign=top;align=center;shape=mxgraph.floorplan.wallCorner;fillColor=strokeColor;direction=south;" vertex="1" parent="1">
          <mxGeometry x="280" y="152" width="240" height="647" as="geometry" />
        </mxCell>
        <mxCell id="ag_mGLsWCz3XFreDvWMs-6" value="" style="verticalLabelPosition=bottom;html=1;verticalAlign=top;align=center;shape=mxgraph.floorplan.wallCorner;fillColor=strokeColor;direction=west" vertex="1" parent="1">
          <mxGeometry x="520" y="325" width="240" height="160" as="geometry" />
        </mxCell>
        <mxCell id="ag_mGLsWCz3XFreDvWMs-7" value="" style="verticalLabelPosition=bottom;html=1;verticalAlign=top;align=center;shape=mxgraph.floorplan.wallCorner;fillColor=strokeColor;direction=south;" vertex="1" parent="1">
          <mxGeometry x="500" y="152" width="260" height="190" as="geometry" />
        </mxCell>
        <mxCell id="ag_mGLsWCz3XFreDvWMs-8" value="" style="verticalLabelPosition=bottom;html=1;verticalAlign=top;align=center;shape=mxgraph.floorplan.wall;fillColor=strokeColor;direction=south;rotation=90;" vertex="1" parent="1">
          <mxGeometry x="386.75" y="195.75" width="10" height="246.5" as="geometry" />
        </mxCell>
        <mxCell id="ag_mGLsWCz3XFreDvWMs-12" value="" style="verticalLabelPosition=bottom;html=1;verticalAlign=top;align=center;shape=mxgraph.floorplan.wall;fillColor=strokeColor;" vertex="1" parent="1">
          <mxGeometry x="270" y="475" width="250" height="10" as="geometry" />
        </mxCell>
        <mxCell id="ag_mGLsWCz3XFreDvWMs-13" value="" style="verticalLabelPosition=bottom;html=1;verticalAlign=top;align=center;shape=mxgraph.floorplan.wall;fillColor=strokeColor;" vertex="1" parent="1">
          <mxGeometry x="270" y="635" width="250" height="10" as="geometry" />
        </mxCell>
        <mxCell id="ag_mGLsWCz3XFreDvWMs-15" value="" style="verticalLabelPosition=bottom;html=1;verticalAlign=top;align=center;shape=mxgraph.floorplan.doorRight;aspect=fixed;rotation=-90;" vertex="1" parent="1">
          <mxGeometry x="268" y="185" width="37.88" height="40.25" as="geometry" />
        </mxCell>
        <mxCell id="ag_mGLsWCz3XFreDvWMs-16" value="" style="verticalLabelPosition=bottom;html=1;verticalAlign=top;align=center;shape=mxgraph.floorplan.doorRight;aspect=fixed;rotation=-90;" vertex="1" parent="1">
          <mxGeometry x="268" y="349.75" width="37.88" height="40.25" as="geometry" />
        </mxCell>
        <mxCell id="ag_mGLsWCz3XFreDvWMs-17" value="" style="verticalLabelPosition=bottom;html=1;verticalAlign=top;align=center;shape=mxgraph.floorplan.doorRight;aspect=fixed;rotation=-90;" vertex="1" parent="1">
          <mxGeometry x="268" y="510.75" width="37.88" height="40.25" as="geometry" />
        </mxCell>
        <mxCell id="ag_mGLsWCz3XFreDvWMs-18" value="" style="verticalLabelPosition=bottom;html=1;verticalAlign=top;align=center;shape=mxgraph.floorplan.wall;fillColor=strokeColor;direction=south;" vertex="1" parent="1">
          <mxGeometry x="262.18" y="550" width="10" height="95" as="geometry" />
        </mxCell>
        <mxCell id="ag_mGLsWCz3XFreDvWMs-19" value="" style="verticalLabelPosition=bottom;html=1;verticalAlign=top;align=center;shape=mxgraph.floorplan.wall;fillColor=strokeColor;direction=south;" vertex="1" parent="1">
          <mxGeometry x="262" y="389" width="10" height="123" as="geometry" />
        </mxCell>
        <mxCell id="ag_mGLsWCz3XFreDvWMs-20" value="" style="verticalLabelPosition=bottom;html=1;verticalAlign=top;align=center;shape=mxgraph.floorplan.wall;fillColor=strokeColor;direction=south;" vertex="1" parent="1">
          <mxGeometry x="262" y="224.25" width="10" height="126.75" as="geometry" />
        </mxCell>
        <mxCell id="ag_mGLsWCz3XFreDvWMs-21" value="" style="verticalLabelPosition=bottom;html=1;verticalAlign=top;align=center;shape=mxgraph.floorplan.wall;fillColor=strokeColor;direction=south;" vertex="1" parent="1">
          <mxGeometry x="262.18" y="160" width="10" height="26" as="geometry" />
        </mxCell>
        <mxCell id="ag_mGLsWCz3XFreDvWMs-22" value="" style="verticalLabelPosition=bottom;html=1;verticalAlign=top;align=center;shape=mxgraph.floorplan.doorRight;aspect=fixed;rotation=-180;" vertex="1" parent="1">
          <mxGeometry x="234.3" y="758.75" width="37.88" height="40.25" as="geometry" />
        </mxCell>
        <mxCell id="ag_mGLsWCz3XFreDvWMs-23" value="" style="verticalLabelPosition=bottom;html=1;verticalAlign=top;align=center;shape=mxgraph.floorplan.doorOverhead;" vertex="1" parent="1">
          <mxGeometry x="343" y="769" width="104" height="30" as="geometry" />
        </mxCell>
        <mxCell id="ag_mGLsWCz3XFreDvWMs-24" value="" style="verticalLabelPosition=bottom;html=1;verticalAlign=top;align=center;shape=mxgraph.floorplan.doorDouble;aspect=fixed;rotation=-180;" vertex="1" parent="1">
          <mxGeometry x="602" y="439" width="76" height="40.38" as="geometry" />
        </mxCell>
        <mxCell id="ag_mGLsWCz3XFreDvWMs-25" value="" style="verticalLabelPosition=bottom;html=1;verticalAlign=top;align=center;shape=mxgraph.floorplan.window;rotation=90;" vertex="1" parent="1">
          <mxGeometry x="721" y="314" width="68" height="10" as="geometry" />
        </mxCell>
        <mxCell id="ag_mGLsWCz3XFreDvWMs-26" value="" style="verticalLabelPosition=bottom;html=1;verticalAlign=top;align=center;shape=mxgraph.floorplan.window;rotation=90;" vertex="1" parent="1">
          <mxGeometry x="481" y="712" width="68" height="10" as="geometry" />
        </mxCell>
        <mxCell id="ag_mGLsWCz3XFreDvWMs-27" value="5 m" style="shape=dimension;direction=west;align=center;points=[];verticalAlign=bottom;spacingTop=-15;labelBackgroundColor=none;fontSize=16;whiteSpace=wrap;html=1;fontFamily=Times New Roman;labelPosition=center;verticalLabelPosition=top;" vertex="1" parent="1">
          <mxGeometry x="517" y="123" width="244" height="20" as="geometry" />
        </mxCell>
        <mxCell id="ag_mGLsWCz3XFreDvWMs-29" value="4 m" style="shape=dimension;direction=west;align=center;points=[];verticalAlign=bottom;spacingTop=-15;labelBackgroundColor=none;fontSize=16;whiteSpace=wrap;html=1;fontFamily=Times New Roman;labelPosition=center;verticalLabelPosition=top;" vertex="1" parent="1">
          <mxGeometry x="269.75" y="123" width="244" height="20" as="geometry" />
        </mxCell>
        <mxCell id="ag_mGLsWCz3XFreDvWMs-30" value="10 m" style="shape=dimension;direction=west;align=center;points=[];verticalAlign=bottom;spacingTop=-15;labelBackgroundColor=none;fontSize=16;whiteSpace=wrap;html=1;fontFamily=Times New Roman;labelPosition=center;verticalLabelPosition=top;rotation=90;" vertex="1" parent="1">
          <mxGeometry x="611" y="309" width="334" height="20" as="geometry" />
        </mxCell>
        <mxCell id="ag_mGLsWCz3XFreDvWMs-34" value="20 m" style="shape=dimension;direction=west;align=center;points=[];verticalAlign=bottom;spacingTop=-15;labelBackgroundColor=none;fontSize=16;whiteSpace=wrap;html=1;fontFamily=Times New Roman;labelPosition=center;verticalLabelPosition=top;rotation=-90;" vertex="1" parent="1">
          <mxGeometry x="-155" y="466.5" width="652" height="20" as="geometry" />
        </mxCell>
        <mxCell id="ag_mGLsWCz3XFreDvWMs-35" value="1 m" style="shape=dimension;direction=west;align=center;points=[];verticalAlign=bottom;spacingTop=-15;labelBackgroundColor=none;fontSize=16;whiteSpace=wrap;html=1;fontFamily=Times New Roman;labelPosition=center;verticalLabelPosition=top;" vertex="1" parent="1">
          <mxGeometry x="190" y="123" width="77" height="20" as="geometry" />
        </mxCell>
        <mxCell id="ag_mGLsWCz3XFreDvWMs-37" value="5 m" style="shape=dimension;direction=west;align=center;points=[];verticalAlign=bottom;spacingTop=-15;labelBackgroundColor=none;fontSize=16;whiteSpace=wrap;html=1;fontFamily=Times New Roman;labelPosition=center;verticalLabelPosition=top;rotation=-90;" vertex="1" parent="1">
          <mxGeometry x="422" y="228" width="149" height="20" as="geometry" />
        </mxCell>
        <mxCell id="ag_mGLsWCz3XFreDvWMs-39" value="5 m" style="shape=dimension;direction=west;align=center;points=[];verticalAlign=bottom;spacingTop=-15;labelBackgroundColor=none;fontSize=16;whiteSpace=wrap;html=1;fontFamily=Times New Roman;labelPosition=center;verticalLabelPosition=top;rotation=-90;" vertex="1" parent="1">
          <mxGeometry x="422.5" y="389.5" width="148" height="20" as="geometry" />
        </mxCell>
        <mxCell id="ag_mGLsWCz3XFreDvWMs-40" value="5 m" style="shape=dimension;direction=west;align=center;points=[];verticalAlign=bottom;spacingTop=-15;labelBackgroundColor=none;fontSize=16;whiteSpace=wrap;html=1;fontFamily=Times New Roman;labelPosition=center;verticalLabelPosition=top;rotation=-90;" vertex="1" parent="1">
          <mxGeometry x="423.75" y="549.75" width="145.5" height="20" as="geometry" />
        </mxCell>
        <mxCell id="ag_mGLsWCz3XFreDvWMs-41" value="5 m" style="shape=dimension;direction=west;align=center;points=[];verticalAlign=bottom;spacingTop=-15;labelBackgroundColor=none;fontSize=16;whiteSpace=wrap;html=1;fontFamily=Times New Roman;labelPosition=center;verticalLabelPosition=top;rotation=90;" vertex="1" parent="1">
          <mxGeometry x="461.5" y="711" width="153.5" height="20" as="geometry" />
        </mxCell>
      </root>
    </mxGraphModel>
  </diagram>
</mxfile>
